<?xml version="1.0" encoding="UTF-8" standalone="no"?>
<!-- Created with Inkscape (http://www.inkscape.org/) -->

<svg xmlns:dc="http://purl.org/dc/elements/1.1/" xmlns:cc="http://creativecommons.org/ns#" xmlns:rdf="http://www.w3.org/1999/02/22-rdf-syntax-ns#"
    xmlns="http://www.w3.org/2000/svg" xmlns:sodipodi="http://sodipodi.sourceforge.net/DTD/sodipodi-0.dtd"
    xmlns:inkscape="http://www.inkscape.org/namespaces/inkscape" width="21.348728mm" height="15.098517mm"
    viewBox="0 0 21.348728 15.098517" version="1.1" id="svg5042" inkscape:version="0.92.0 r15299"
    sodipodi:docname="logo_rainbow.svg">
  <defs
     id="defs5036" />
  <sodipodi:namedview
     id="base"
     pagecolor="#ffffff"
     bordercolor="#666666"
     borderopacity="1.0"
     inkscape:pageopacity="0.0"
     inkscape:pageshadow="2"
     inkscape:zoom="2.8"
     inkscape:cx="-27.098628"
     inkscape:cy="62.747687"
     inkscape:document-units="mm"
     inkscape:current-layer="layer1"
     showgrid="false"
     inkscape:window-width="1918"
     inkscape:window-height="1056"
     inkscape:window-x="0"
     inkscape:window-y="22"
     inkscape:window-maximized="1"
     fit-margin-top="0"
     fit-margin-left="0"
     fit-margin-right="0"
     fit-margin-bottom="0" />
  <metadata
     id="metadata5039">
    <rdf:RDF>
      <cc:Work
         rdf:about="">
        <dc:format>image/svg+xml</dc:format>
        <dc:type
           rdf:resource="http://purl.org/dc/dcmitype/StillImage" />
        <dc:title></dc:title>
      </cc:Work>
    </rdf:RDF>
  </metadata>
  <g
     inkscape:label="Layer 1"
     inkscape:groupmode="layer"
     id="layer1"
     transform="translate(-115.56968,-145.81979)">
    <g
       id="g5753">
      <g
         transform="matrix(0.35277777,0,0,-0.35277777,118.66013,159.32316)"
         id="g158">
        <path
           inkscape:connector-curvature="0"
           id="path160"
           style="fill:none;stroke:#f04020;stroke-width:3;stroke-linecap:round;stroke-linejoin:miter;stroke-miterlimit:10;stroke-dasharray:none;stroke-opacity:1"
           d="M 0,0 C 0,0 0.046,-3 -3.625,-3 -7.295,-3 -7.25,0.312 -7.25,0.312 V 2.375" />
      </g>
      <g
         transform="matrix(0.35277777,0,0,-0.35277777,116.10249,153.27842)"
         id="g162">
        <path
           inkscape:connector-curvature="0"
           id="path164"
           style="fill:none;stroke:#72cea9;stroke-width:3;stroke-linecap:round;stroke-linejoin:miter;stroke-miterlimit:10;stroke-dasharray:none;stroke-opacity:1"
           d="m 0,0 7.25,-13.26 v -3.875" />
      </g>
      <g
         transform="matrix(0.35277777,0,0,-0.35277777,118.66013,152.75268)"
         id="g166">
        <path
           inkscape:connector-curvature="0"
           id="path168"
           style="fill:none;stroke:#fccb33;stroke-width:3;stroke-linecap:round;stroke-linejoin:miter;stroke-miterlimit:10;stroke-dasharray:none;stroke-opacity:1"
           d="m 0,0 v 1.687 c 0,0 -0.295,3.375 -3.591,3.375 -3.296,0 -3.659,-2.531 -3.659,-2.531 V -1.49" />
      </g>
      <g
         transform="matrix(0.35277777,0,0,-0.35277777,125.80388,159.32316)"
         id="g170">
        <path
           inkscape:connector-curvature="0"
           id="path172"
           style="fill:none;stroke:#f5746a;stroke-width:3;stroke-linecap:round;stroke-linejoin:miter;stroke-miterlimit:10;stroke-dasharray:none;stroke-opacity:1"
           d="M 0,0 V -3 H 4.5" />
      </g>
      <g
         transform="matrix(0.35277777,0,0,-0.35277777,125.80388,153.11614)"
         id="g174">
        <path
           inkscape:connector-curvature="0"
           id="path176"
           style="fill:none;stroke:#fbcc33;stroke-width:3;stroke-linecap:round;stroke-linejoin:miter;stroke-miterlimit:10;stroke-dasharray:none;stroke-opacity:1"
           d="M 0,0 V -17.595" />
      </g>
      <g
         transform="matrix(0.35277777,0,0,-0.35277777,125.80388,150.96674)"
         id="g178">
        <path
           inkscape:connector-curvature="0"
           id="path180"
           style="fill:none;stroke:#f68213;stroke-width:3;stroke-linecap:round;stroke-linejoin:miter;stroke-miterlimit:10;stroke-dasharray:none;stroke-opacity:1"
           d="M 0,0 V -6.093" />
      </g>
      <g
         transform="matrix(0.35277777,0,0,-0.35277777,123.48878,157.23165)"
         id="g182">
        <path
           inkscape:connector-curvature="0"
           id="path184"
           style="fill:none;stroke:#72cea9;stroke-width:3;stroke-linecap:round;stroke-linejoin:miter;stroke-miterlimit:10;stroke-dasharray:none;stroke-opacity:1"
           d="M 0,0 V -8.929" />
      </g>
      <g
         transform="matrix(0.35277777,0,0,-0.35277777,120.82089,153.11614)"
         id="g186">
        <path
           inkscape:connector-curvature="0"
           id="path188"
           style="fill:none;stroke:#b7df4b;stroke-width:3;stroke-linecap:round;stroke-linejoin:miter;stroke-miterlimit:10;stroke-dasharray:none;stroke-opacity:1"
           d="m 0,0 v 2.343 c 0,0 0.158,3.777 3.777,3.777 3.62,0 3.785,-3.277 3.785,-3.277 v -14.509" />
      </g>
      <g
         transform="matrix(0.35277777,0,0,-0.35277777,120.82089,160.38149)"
         id="g190">
        <path
           inkscape:connector-curvature="0"
           id="path192"
           style="fill:none;stroke:#53bf36;stroke-width:3;stroke-linecap:round;stroke-linejoin:miter;stroke-miterlimit:10;stroke-dasharray:none;stroke-opacity:1"
           d="M 0,0 V 20.595" />
      </g>
      <g
         transform="matrix(0.35277777,0,0,-0.35277777,120.82089,155.55285)"
         id="g194">
        <path
           inkscape:connector-curvature="0"
           id="path196"
           style="fill:none;stroke:#2ea55b;stroke-width:3;stroke-linecap:round;stroke-linejoin:miter;stroke-miterlimit:10;stroke-dasharray:none;stroke-opacity:1"
           d="M 0,0 H 7.562" />
      </g>
      <g
         transform="matrix(0.35277777,0,0,-0.35277777,131.55324,159.32316)"
         id="g198">
        <path
           inkscape:connector-curvature="0"
           id="path200"
           style="fill:none;stroke:#81d187;stroke-width:3;stroke-linecap:round;stroke-linejoin:miter;stroke-miterlimit:10;stroke-dasharray:none;stroke-opacity:1"
           d="M 0,0 C 0,0 0.046,-3 -3.625,-3 -7.295,-3 -7.25,0.312 -7.25,0.312 V 2.375" />
      </g>
      <g
         transform="matrix(0.35277777,0,0,-0.35277777,128.9956,153.27842)"
         id="g202">
        <path
           inkscape:connector-curvature="0"
           id="path204"
           style="fill:none;stroke:#55c7d2;stroke-width:3;stroke-linecap:round;stroke-linejoin:miter;stroke-miterlimit:10;stroke-dasharray:none;stroke-opacity:1"
           d="m 0,0 7.25,-13.26 v -3.875" />
      </g>
      <g
         transform="matrix(0.35277777,0,0,-0.35277777,131.55324,152.75268)"
         id="g206">
        <path
           inkscape:connector-curvature="0"
           id="path208"
           style="fill:none;stroke:#72cea8;stroke-width:3;stroke-linecap:round;stroke-linejoin:miter;stroke-miterlimit:10;stroke-dasharray:none;stroke-opacity:1"
           d="m 0,0 v 1.687 c 0,0 -0.295,3.375 -3.591,3.375 -3.296,0 -3.659,-2.531 -3.659,-2.531 V -1.49" />
      </g>
      <g
         transform="matrix(0.35277777,0,0,-0.35277777,136.38189,157.23165)"
         id="g210">
        <path
           inkscape:connector-curvature="0"
           id="path212"
           style="fill:none;stroke:#72cea9;stroke-width:3;stroke-linecap:round;stroke-linejoin:miter;stroke-miterlimit:10;stroke-dasharray:none;stroke-opacity:1"
           d="M 0,0 V -8.929" />
      </g>
      <g
         transform="matrix(0.35277777,0,0,-0.35277777,133.714,153.11614)"
         id="g214">
        <path
           inkscape:connector-curvature="0"
           id="path216"
           style="fill:none;stroke:#fccb33;stroke-width:3;stroke-linecap:round;stroke-linejoin:miter;stroke-miterlimit:10;stroke-dasharray:none;stroke-opacity:1"
           d="m 0,0 v 2.343 c 0,0 0.158,3.777 3.777,3.777 3.62,0 3.785,-3.277 3.785,-3.277 v -14.509" />
      </g>
      <g
         transform="matrix(0.35277777,0,0,-0.35277777,133.714,160.38149)"
         id="g218">
        <path
           inkscape:connector-curvature="0"
           id="path220"
           style="fill:none;stroke:#f04020;stroke-width:3;stroke-linecap:round;stroke-linejoin:miter;stroke-miterlimit:10;stroke-dasharray:none;stroke-opacity:1"
           d="M 0,0 V 20.595" />
      </g>
      <g
         transform="matrix(0.35277777,0,0,-0.35277777,133.714,155.55285)"
         id="g222">
        <path
           inkscape:connector-curvature="0"
           id="path224"
           style="fill:none;stroke:#f47415;stroke-width:3;stroke-linecap:round;stroke-linejoin:miter;stroke-miterlimit:10;stroke-dasharray:none;stroke-opacity:1"
           d="M 0,0 H 7.562" />
      </g>
      <g
         transform="matrix(0.35277777,0,0,-0.35277777,120.61367,149.16461)"
         id="g226">
        <path
           inkscape:connector-curvature="0"
           id="path228"
           style="fill:none;stroke:#ef2e32;stroke-width:1.39999998;stroke-linecap:round;stroke-linejoin:miter;stroke-miterlimit:10;stroke-dasharray:none;stroke-opacity:1"
           d="m 0,0 v 7.167 c 0,0 0.131,1.604 1.568,1.604 1.436,0 1.731,-1.231 1.731,-1.53 L 3.299,0" />
      </g>
      <g
         transform="matrix(0.35277777,0,0,-0.35277777,126.20351,149.16461)"
         id="g230">
        <path
           inkscape:connector-curvature="0"
           id="path232"
           style="fill:none;stroke:#ef2e32;stroke-width:1.39999998;stroke-linecap:round;stroke-linejoin:miter;stroke-miterlimit:10;stroke-dasharray:none;stroke-opacity:1"
           d="m 0,0 v 7.167 c 0,0 0.131,1.604 1.568,1.604 1.436,0 1.731,-1.231 1.731,-1.53 L 3.299,0" />
      </g>
      <g
         transform="matrix(0.35277777,0,0,-0.35277777,131.78784,148.50625)"
         id="g234">
        <path
           inkscape:connector-curvature="0"
           id="path236"
           style="fill:none;stroke:#ef2e32;stroke-width:1.39999998;stroke-linecap:round;stroke-linejoin:miter;stroke-miterlimit:10;stroke-dasharray:none;stroke-opacity:1"
           d="m 0,0 v 5.264 c 0,0.298 -0.295,1.53 -1.731,1.53 -1.437,0 -1.568,-1.606 -1.568,-1.606 V 0 c 0,0 0.068,-1.754 1.65,-1.754 C -0.064,-1.754 0,0 0,0 Z" />
      </g>
      <g
         transform="matrix(0.35277777,0,0,-0.35277777,125.15741,146.07025)"
         id="g238">
        <path
           inkscape:connector-curvature="0"
           id="path240"
           style="fill:none;stroke:#ef2e32;stroke-width:1.39999998;stroke-linecap:round;stroke-linejoin:miter;stroke-miterlimit:10;stroke-dasharray:none;stroke-opacity:1"
           d="m 0,0 v -7.166 c 0,0 -0.131,-1.605 -1.568,-1.605 -1.436,0 -1.732,1.231 -1.732,1.53 V 0" />
      </g>
      <g
         transform="matrix(0.35277777,0,0,-0.35277777,121.76867,146.63628)"
         id="g242">
        <path
           inkscape:connector-curvature="0"
           id="path244"
           style="fill:none;stroke:#ef2e32;stroke-width:1.39999998;stroke-linecap:round;stroke-linejoin:miter;stroke-miterlimit:10;stroke-dasharray:none;stroke-opacity:1"
           d="m 0,0 c 0,0 0.131,1.604 1.567,1.604 1.437,0 1.732,-1.231 1.732,-1.53 v -7.241" />
      </g>
      <g
         transform="matrix(0.35277777,0,0,-0.35277777,128.41648,146.12469)"
         id="g246">
        <path
           inkscape:connector-curvature="0"
           id="path248"
           style="fill:none;stroke:#ef2e32;stroke-width:1.39999998;stroke-linecap:round;stroke-linejoin:miter;stroke-miterlimit:10;stroke-dasharray:none;stroke-opacity:1"
           d="m 0,0 v -8.463 h 1.715 c 0.455,0 1.569,0.382 1.569,1.651 v 5.114 c 0,0 -0.151,1.689 -1.737,1.689 z" />
      </g>
      <g
         transform="matrix(0.35277777,0,0,-0.35277777,133.31367,147.04417)"
         id="g250">
        <path
           inkscape:connector-curvature="0"
           id="path252"
           style="fill:none;stroke:#ef2e32;stroke-width:1.39999998;stroke-linecap:round;stroke-linejoin:miter;stroke-miterlimit:10;stroke-dasharray:none;stroke-opacity:1"
           d="M 0,0 2.375,0.875" />
      </g>
      <g
         transform="matrix(0.35277777,0,0,-0.35277777,134.15152,148.49937)"
         id="g254">
        <path
           inkscape:connector-curvature="0"
           id="path256"
           style="fill:none;stroke:#ef2e32;stroke-width:1.39999998;stroke-linecap:round;stroke-linejoin:miter;stroke-miterlimit:10;stroke-dasharray:none;stroke-opacity:1"
           d="M 0,0 -2.375,0.875" />
      </g>
      <g
         transform="matrix(0.35277777,0,0,-0.35277777,119.09352,147.04417)"
         id="g258">
        <path
           inkscape:connector-curvature="0"
           id="path260"
           style="fill:none;stroke:#ef2e32;stroke-width:1.39999998;stroke-linecap:round;stroke-linejoin:miter;stroke-miterlimit:10;stroke-dasharray:none;stroke-opacity:1"
           d="M 0,0 -2.375,0.875" />
      </g>
      <g
         transform="matrix(0.35277777,0,0,-0.35277777,118.25567,148.49937)"
         id="g262">
        <path
           inkscape:connector-curvature="0"
           id="path264"
           style="fill:none;stroke:#ef2e32;stroke-width:1.39999998;stroke-linecap:round;stroke-linejoin:miter;stroke-miterlimit:10;stroke-dasharray:none;stroke-opacity:1"
           d="M 0,0 2.375,0.875" />
      </g>
    </g>
  </g>
</svg>
